<?xml version="1.0" encoding="UTF-8"?>
<svg version="1.1" xmlns="http://www.w3.org/2000/svg" width="88" height="25">
<path d="M0 0 C29.04 0 58.08 0 88 0 C88 8.25 88 16.5 88 25 C58.96 25 29.92 25 0 25 C0 16.75 0 8.5 0 0 Z " fill="#090909" transform="translate(0,0)"/>
<path d="M0 0 C29.04 0 58.08 0 88 0 C88 11.25 88 11.25 86 17 C85.67 17 85.34 17 85 17 C85 14.69 85 12.38 85 10 C84.34 10 83.68 10 83 10 C83 12.31 83 14.62 83 17 C82.34 17 81.68 17 81 17 C81 14.36 81 11.72 81 9 C80.34 9 79.68 9 79 9 C79 8.34 79 7.68 79 7 C81.31 7 83.62 7 86 7 C86 5.35 86 3.7 86 2 C79.4 2 72.8 2 66 2 C66 3.65 66 5.3 66 7 C69.67568464 7.91892116 71.16380575 7.95904856 75 7 C75 10.3 75 13.6 75 17 C73.55625 16.979375 72.1125 16.95875 70.625 16.9375 C67.17771295 16.84827854 67.17771295 16.84827854 64 18 C64 12.72 64 7.44 64 2 C43.54 2 23.08 2 2 2 C2 8.93 2 15.86 2 23 C1.67 23 1.34 23 1 23 C0.67 15.41 0.34 7.82 0 0 Z " fill="#313131" transform="translate(0,0)"/>
<path d="M0 0 C6.6 0 13.2 0 20 0 C20 1.65 20 3.3 20 5 C17.69 5 15.38 5 13 5 C13 5.66 13 6.32 13 7 C13.66 7 14.32 7 15 7 C15 9.64 15 12.28 15 15 C15.66 15 16.32 15 17 15 C17 12.69 17 10.38 17 8 C17.66 8 18.32 8 19 8 C19.33 12.29 19.66 16.58 20 21 C13.4 21 6.8 21 0 21 C0.33 19.35 0.66 17.7 1 16 C1.804375 15.87625 2.60875 15.7525 3.4375 15.625 C4.283125 15.41875 5.12875 15.2125 6 15 C6.33 14.34 6.66 13.68 7 13 C7 13.66 7 14.32 7 15 C7.66 15 8.32 15 9 15 C9 11.7 9 8.4 9 5 C5.72226496 5.75150023 5.72226496 5.75150023 4 9 C4 7.68 4 6.36 4 5 C2.68 5 1.36 5 0 5 C0 3.35 0 1.7 0 0 Z " fill="#1F1F1F" transform="translate(66,2)"/>
<path d="M0 0 C0.33 0 0.66 0 1 0 C1 6.93 1 13.86 1 21 C21.79 21 42.58 21 64 21 C64 19.35 64 17.7 64 16 C64.33 15.67 64.66 15.34 65 15 C65.23192865 13.48530552 65.41215238 11.96245438 65.5625 10.4375 C65.68818359 9.19806641 65.68818359 9.19806641 65.81640625 7.93359375 C65.87699219 7.29550781 65.93757813 6.65742188 66 6 C66.33 6 66.66 6 67 6 C67 8.97 67 11.94 67 15 C67.99 15.495 67.99 15.495 69 16 C68.34 16.33 67.68 16.66 67 17 C66.67 18.32 66.34 19.64 66 21 C72.6 21 79.2 21 86 21 C86 17.04 86 13.08 86 9 C86.66 8.67 87.32 8.34 88 8 C88 12.95 88 17.9 88 23 C58.96 23 29.92 23 0 23 C0 15.41 0 7.82 0 0 Z " fill="#373737" transform="translate(0,2)"/>
<path d="M0 0 C0.763125 0.165 1.52625 0.33 2.3125 0.5 C5.00856207 1.00159294 6.44020291 0.8532657 9 0 C9.59732819 2.76264289 10 5.16032769 10 8 C4.06 8 -1.88 8 -8 8 C-8 5.69 -8 3.38 -8 1 C-6.865625 1.020625 -5.73125 1.04125 -4.5625 1.0625 C-1.18424326 1.41577477 -1.18424326 1.41577477 0 0 Z " fill="#A3A3A3" transform="translate(46,9)"/>
<path d="M0 0 C6.6 0 13.2 0 20 0 C20 0.99 20 1.98 20 3 C17.03 3.66 14.06 4.32 11 5 C10.67 8.63 10.34 12.26 10 16 C9.67 16 9.34 16 9 16 C9 12.37 9 8.74 9 5 C5.72226496 5.75150023 5.72226496 5.75150023 4 9 C4 7.68 4 6.36 4 5 C2.68 5 1.36 5 0 5 C0 3.35 0 1.7 0 0 Z " fill="#050505" transform="translate(66,2)"/>
<path d="M0 0 C1.32 0.33 2.64 0.66 4 1 C5.32 0.67 6.64 0.34 8 0 C8 3.3 8 6.6 8 10 C5.36 10 2.72 10 0 10 C0 6.7 0 3.4 0 0 Z " fill="#C8C8C8" transform="translate(67,7)"/>
<path d="M0 0 C0.99 0 1.98 0 3 0 C3 2.64 3 5.28 3 8 C4.32 8 5.64 8 7 8 C7 6.35 7 4.7 7 3 C7.66 3 8.32 3 9 3 C9 5.31 9 7.62 9 10 C6.03 10 3.06 10 0 10 C0 6.7 0 3.4 0 0 Z " fill="#C4C4C4" transform="translate(15,7)"/>
<path d="M0 0 C2.0625 0.4375 2.0625 0.4375 4 1 C4 3.31 4 5.62 4 8 C2.35 7.67 0.7 7.34 -1 7 C-1.04254356 5.00045254 -1.04080783 2.99958364 -1 1 C-0.67 0.67 -0.34 0.34 0 0 Z " fill="#CBCBCB" transform="translate(52,9)"/>
<path d="M0 0 C1.32 0.66 2.64 1.32 4 2 C4 3.65 4 5.3 4 7 C2.35 7.33 0.7 7.66 -1 8 C-1.04241723 5.66705225 -1.04092937 3.33297433 -1 1 C-0.67 0.67 -0.34 0.34 0 0 Z " fill="#D3D3D3" transform="translate(33,9)"/>
<path d="M0 0 C1.65 0 3.3 0 5 0 C5 2.31 5 4.62 5 7 C3.35 7 1.7 7 0 7 C0 4.69 0 2.38 0 0 Z " fill="#D1D1D1" transform="translate(38,10)"/>
<path d="M0 0 C2.31 0 4.62 0 7 0 C7 0.66 7 1.32 7 2 C6.01 2 5.02 2 4 2 C4 4.64 4 7.28 4 10 C3.34 10 2.68 10 2 10 C2 7.36 2 4.72 2 2 C1.34 2 0.68 2 0 2 C0 1.34 0 0.68 0 0 Z " fill="#DADADA" transform="translate(79,7)"/>
<path d="M0 0 C1.32 0 2.64 0 4 0 C4 0.66 4 1.32 4 2 C3.01 2 2.02 2 1 2 C1 2.99 1 3.98 1 5 C1.99 5 2.98 5 4 5 C4 5.66 4 6.32 4 7 C2.35 6.67 0.7 6.34 -1 6 C-1.042721 4.33388095 -1.04063832 2.66617115 -1 1 C-0.67 0.67 -0.34 0.34 0 0 Z " fill="#DCDCDC" transform="translate(26,10)"/>
<path d="M0 0 C0 1.65 0 3.3 0 5 C-1.65 4.67 -3.3 4.34 -5 4 C-5 3.01 -5 2.02 -5 1 C-2 0 -2 0 0 0 Z " fill="#5F5F5F" transform="translate(32,11)"/>
</svg>
